<?xml version="1.0" encoding="utf-8"?>
<!-- Generator: Adobe Illustrator 24.3.0, SVG Export Plug-In . SVG Version: 6.00 Build 0)  -->
<svg version="1.1" id="Layer_1" xmlns="http://www.w3.org/2000/svg" xmlns:xlink="http://www.w3.org/1999/xlink" x="0px" y="0px"
	 viewBox="0 0 188 204" style="enable-background:new 0 0 188 204;" xml:space="preserve">
<style type="text/css">
	.st0{fill:#FB9FEF;}
	.st1{fill:#5A0B5E;}
	.st2{fill:#771A7A;}
	.st3{fill:#A82DA8;}
</style>
<g>
	<path class="st0" d="M114.9,130.3c-3.6,0-7.2,0.1-10.8,0c-11.2-0.4-22.4-0.1-33.6-0.2c-0.8,0-0.9-0.3-0.8-0.9
		c0.5-1.6,1-3.1,1.5-4.7c0.5-1.6,0.8-3.2,1.3-4.7c0.4-1.5,0.9-2.9,1.3-4.4c0.3-1.1,0.7-2.2,1-3.3c0.3-1.2,0.8-2.4,1.1-3.7
		c0.3-1.6,0.9-3.1,1.4-4.6c0.1-0.7,0.3-1.3,0.6-1.8c0.5-0.7,0-1.6-1.2-2.4c-3.4-2.3-6.3-5.3-8.5-8.7c-1.3-1.9-2.4-3.9-3.3-6.1
		c-0.5-1.4-1-2.8-1.4-4.3c-0.9-3.3-1.3-6.7-1-10.2c0.1-2,0.5-4.1,1-6.1c0.7-2.9,1.8-5.6,3.3-8.2c2.1-3.6,4.7-6.8,8-9.5
		c2.6-2.1,5.4-3.9,8.4-5.4c1.5-0.7,3-1.2,4.5-1.6c2-0.6,3.9-1,6-1.4c1.4-0.2,2.8-0.2,4.3-0.1c1.6-0.1,3.3,0,4.9,0.1
		c1.6,0.2,3.3,0.5,4.9,0.9c1.3,0.4,2.6,0.7,3.8,1.2c2.2,0.8,4.4,1.8,6.4,3.1c2.7,1.6,5.2,3.7,7.4,6c2.3,2.5,4.3,5.3,5.8,8.3
		c0.9,1.8,1.6,3.7,2.2,5.6c0.4,1.5,0.7,3.1,0.9,4.6c0.2,1.7,0.3,3.4,0.3,5c0,2.3-0.3,4.7-0.8,6.9c-1.9,7.8-6.4,14.6-12.8,19.5
		c-0.1,0.1-0.3,0.3-0.5,0.3c-1.4,0.8-1.5,1.5-0.8,3.1c0.4,0.9,0.6,2.1,0.9,3.1c0.5,1.6,0.8,3.2,1.4,4.7c0.3,1.1,0.7,2.2,0.9,3.3
		c0.3,1.2,0.8,2.2,1,3.4s0.6,2.2,0.9,3.3c0.3,1.1,0.5,2.3,0.9,3.5c0.3,1,0.7,2,0.9,3.1c0.2,0.8,0.4,1.6,0.7,2.3
		c0.3,0.8,0.1,1.2-0.8,1.2h-11.9v-0.2H114.9z"/>
	<path class="st1" d="M98.7,203.8c-16.1,0-32.3,0-48.5,0c-1.5,0-1.8-0.7-1.4-2c0.4-1.1,0.7-2.2,1-3.4c0.2-1.1,0.7-2,0.9-3.1
		c0.3-1.2,0.7-2.4,1-3.6c0.3-1,0.5-2.1,0.9-3.1c0.3-0.7,0.3-1.4,0.6-2.2c0.5-1.5,0.9-3.1,1.4-4.6c0.2-0.7,0.4-1.4,0.6-2.1
		c0.3-1.2,0.7-2.4,1-3.5c0.2-0.7,0.4-1.4,0.5-2c0.1-0.5,0.3-0.5,0.7-0.5h81c1.9,0,2.2,0.3,2.4,2.1c0.2,1.2,0.5,2.3,0.9,3.4
		c0.2,0.7,0.5,1.4,0.6,2.2c0.2,1.2,0.7,2.2,0.9,3.4c0.3,1.2,0.6,2.4,1,3.5c0.3,1.1,0.7,2.1,0.9,3.2c0.3,1.1,0.7,2.3,1,3.5
		c0.3,1.2,0.6,2.2,0.9,3.2c0.3,1,0.7,2.3,1,3.5c0.1,0.1,0,0.3,0.1,0.5c0.5,1.4,0.3,1.6-1.2,1.6L98.7,203.8z"/>
	<path class="st2" d="M98.7,171H59.2c-1.2,0-1.4-0.1-1.1-1.2c0.4-1.6,0.9-3.1,1.4-4.7c0.5-1.6,0.8-3.1,1.3-4.6
		c0.3-1.1,0.6-2.2,1-3.3c0.4-1.1,0.5-2.2,0.9-3.3c0.3-0.8,0.4-1.6,0.7-2.4c0.1-0.5,0.7-0.9,1.2-0.8c2.2,0,51.5,0.3,67.7,0.3
		c1.7,0,1.8,0.1,2,1.7c0.3,1.3,0.8,2.4,1.1,3.7c0.3,1.6,0.9,3.2,1.4,4.8c0.2,1.1,0.7,2.1,0.9,3.1c0.3,1.2,0.7,2.3,1,3.5
		c0.2,0.7,0.3,1.4,0.5,2c0.4,1.1,0.4,1.2-0.9,1.2L98.7,171z"/>
	<path class="st3" d="M66.1,148.1c-1.7,0-1.8-0.2-1.2-1.8c0.6-1.6,0.9-3.3,1.5-4.9c0.5-1.6,0.9-3.2,1.4-4.7c0.3-1,0.7-2.1,0.9-3.1
		c0-0.5,0.4-0.8,0.9-0.8h0.1h1.2c9.7,0.1,47.7,0.2,57,0.3c0.8,0,1.1,0.3,1.2,1c0.3,1.6,0.9,3.2,1.4,4.7c0.3,1.1,0.5,2.2,0.9,3.3
		c0.4,1.6,0.9,3.1,1.4,4.6c0,0.1,0.1,0.1,0.1,0.1c0.5,1.2,0.3,1.5-1.1,1.5C120.7,148.3,77,148.1,66.1,148.1z"/>
</g>
</svg>
