<svg id="Layer_1" data-name="Layer 1" xmlns="http://www.w3.org/2000/svg" viewBox="0 0 188 204"><defs><style>.cls-1{fill:#fb9fef;}.cls-2{fill:#5a0b5e;}.cls-3{fill:#771a7a;}.cls-4{fill:#a82da8;}</style></defs><path class="cls-1" d="M114.94,129.31c-3.59,0-7.19.07-10.78,0-11.19-.41-22.37-.07-33.63-.2-.81,0-1-.28-.81-.89.47-1.56,1-3.11,1.49-4.74s.81-3.19,1.29-4.75.88-2.91,1.29-4.4l1-3.26c.34-1.22.82-2.44,1.09-3.66.34-1.56,1-3,1.35-4.61a7.42,7.42,0,0,1,.61-1.83c.48-.75,0-1.56-1.22-2.37a31,31,0,0,1-8.54-8.75,37.67,37.67,0,0,1-3.32-6.1,32.6,32.6,0,0,1-1.36-4.34,30,30,0,0,1-1-10.17,31.58,31.58,0,0,1,1-6.1,29.59,29.59,0,0,1,3.26-8.2,34.58,34.58,0,0,1,8-9.5,41.8,41.8,0,0,1,8.4-5.35,28.43,28.43,0,0,1,4.55-1.63,44.73,44.73,0,0,1,6-1.36A22.62,22.62,0,0,1,97.85,37a40.86,40.86,0,0,1,5,.13,32.09,32.09,0,0,1,4.88.95c1.29.41,2.58.75,3.8,1.16a36.85,36.85,0,0,1,6.44,3,34.76,34.76,0,0,1,7.39,6,35.17,35.17,0,0,1,8.07,14,33.64,33.64,0,0,1,1,4.61c.2,1.69.27,3.39.34,5a29.28,29.28,0,0,1-.82,6.91A34.25,34.25,0,0,1,121,98.19a1.5,1.5,0,0,1-.54.34c-1.43.81-1.49,1.49-.82,3,.41,1,.61,2.1.95,3.12.55,1.56.82,3.18,1.43,4.74a25.83,25.83,0,0,1,.88,3.33,32.82,32.82,0,0,1,1,3.39,28.09,28.09,0,0,0,.94,3.32c.34,1.08.55,2.3.95,3.46s.68,2,1,3.11c.21.82.41,1.56.68,2.31s.07,1.15-.81,1.15H114.8v-.2Z"/><path class="cls-2" d="M98.74,202.8H50.19c-1.49,0-1.76-.75-1.35-2a29.46,29.46,0,0,0,1-3.39c.21-1.09.68-2,.89-3.12s.67-2.38,1-3.6c.34-1,.54-2.1,1-3.11.27-.68.34-1.43.61-2.17.54-1.5.95-3,1.36-4.61.2-.68.4-1.36.61-2.11.34-1.22.68-2.37,1-3.52.21-.68.41-1.36.55-2,.06-.48.34-.55.67-.55h81c1.9,0,2.17.34,2.44,2.1a28,28,0,0,0,.88,3.39c.21.75.48,1.43.61,2.17.21,1.16.75,2.24.95,3.39a29.26,29.26,0,0,0,1,3.53c.34,1.08.68,2.1.95,3.19s.68,2.3,1,3.45.61,2.17.95,3.19.67,2.3,1,3.46c.07.13,0,.34.07.47.54,1.36.34,1.63-1.15,1.63Z"/><path class="cls-3" d="M98.74,170H59.21c-1.15,0-1.36-.14-1.09-1.22.41-1.56,1-3.12,1.43-4.68s.81-3.12,1.29-4.61c.34-1.09.61-2.24,1-3.32s.55-2.24.95-3.33c.27-.81.41-1.62.68-2.44a1.12,1.12,0,0,1,1.22-.81c2.17,0,51.53.27,67.66.34,1.7,0,1.77.07,2,1.69.27,1.29.81,2.44,1.08,3.73.34,1.63,1,3.19,1.36,4.82.2,1.08.67,2.1.88,3.11s.68,2.31,1,3.46c.2.68.27,1.36.54,2,.4,1.08.4,1.15-.88,1.15Z"/><path class="cls-4" d="M66.06,147.14c-1.7,0-1.83-.2-1.22-1.76s1-3.33,1.49-4.95.88-3.19,1.42-4.75a26,26,0,0,0,.88-3.12.84.84,0,0,1,.88-.81h1.23c9.69.07,47.72.2,57,.27.82,0,1.09.27,1.22,1,.34,1.62.95,3.18,1.43,4.74.34,1.09.54,2.24.88,3.33.4,1.55.88,3,1.35,4.61,0,.06.07.06.07.13.48,1.22.27,1.49-1.08,1.49C120.7,147.27,77,147.14,66.06,147.14Z"/></svg>