<svg id="Layer_1" data-name="Layer 1" xmlns="http://www.w3.org/2000/svg" viewBox="0 0 188 204"><defs><style>.cls-1{fill:#972688;}.cls-2{fill:#6e0d60;}.cls-3{fill:#530c49;}.cls-4{fill:#810e6f;}.cls-5{fill:#91137f;}</style></defs><path class="cls-1" d="M41.24,176.69h12c1.31.07,1.35.17,1.57,1.31a13.7,13.7,0,0,0,2,5.41c.41.57.67.33.91,0a26,26,0,0,0,2.86-4c.43-.76.85-1.52,1.25-2.29.21-.4.57-.42,1,.35H81.61c.69-.77,1-.54,1.22,0,.72,2.07,1.51,4.12,2.11,6.21.37,1.32.48,2.69.74,4,.73,3.65.51,7.32.57,11,0,1.22-.77,1.82-2.19,1.84a13.46,13.46,0,0,1-4.89-1.14c-3.22-1.15-6.21-2.74-9.41-3.94a15.77,15.77,0,0,0-8.14-.72,33.19,33.19,0,0,1-8.84.57,19.26,19.26,0,0,1-5.33-1.64,18.68,18.68,0,0,0-3.7-1.37,7.54,7.54,0,0,0-3.31.05c-3.06.72-5.56,2.34-8.26,3.65a71.41,71.41,0,0,1-8.89,3.85,31.33,31.33,0,0,1-3.8,1.14,9.75,9.75,0,0,1-4.71.2c-1-.28-1.2-.76-.79-1.61a71.48,71.48,0,0,1,4.12-7.09c3-4.73,6-9.45,8.83-14.23A2.94,2.94,0,0,1,30,176.73c3.74.11,7.48,0,11.23,0Z"/><path class="cls-1" d="M131,180.69a6.09,6.09,0,0,0,.48-3.28c0-.49.19-.62.75-.62q14.85,0,29.7,0a1.08,1.08,0,0,1,1.05.58c3.9,6.48,7.78,13,11.48,19.53.41.73.71,1.52,1.14,2.25a.81.81,0,0,1-.17,1.07c-.29.32-.73.2-1.06.11a32.54,32.54,0,0,1-3.81-1.35c-2.73-1.14-5.15-2.74-8-3.69s-5.56-2.41-8.47-3.39c-1.59-.52-3.24-.85-4.88-1.24a13.16,13.16,0,0,0-4.15-.2,43.94,43.94,0,0,0-4.58.67c-2.47.47-4.72,1.42-7.08,2.1a10.52,10.52,0,0,1-4,.57c-1.19-.12-2.37-.37-3.56-.57a13.92,13.92,0,0,0-4.37,0c-3.91.54-7.32,2.24-10.94,3.43l-3.4,1.15c-.89.3-1.5,0-1.54-.78a8.25,8.25,0,0,1,.16-2.93,1.59,1.59,0,0,0,.07-.38,45.9,45.9,0,0,1,.72-5.48,54.57,54.57,0,0,1,1.2-5.65,46.31,46.31,0,0,1,1.84-5,1.12,1.12,0,0,1,1.22-.74q8,0,16,0a1.67,1.67,0,0,1,1.4.58c.82,1,1.65,1.91,2.48,2.86A2.65,2.65,0,0,0,131,180.69Z"/><path class="cls-2" d="M69.69,129.93H59.19c-1.14,0-1.3-.17-.74-1.05q4.15-6.55,8.32-13.1a1.46,1.46,0,0,1,1.41-.7c2.59,0,5.2-.07,7.79.06,7.09.34,14.2,0,21.29.26,9,.3,18,.13,26.94.2a1.47,1.47,0,0,1,1.4.72q4.18,6.87,8.35,13.74c.44.72.29,1-.69.89-2.61-.23-5.23-.15-7.84-.2-1.41,0-2.81,0-4.2,0-7-.28-13.9-.07-20.83-.32-5.58-.2-11.16.08-16.71-.24C79.17,129.91,74.71,130.19,69.69,129.93Z"/><path class="cls-3" d="M85.56,101c2.29,0,4.64-.08,7,0,7.7.33,15.41.11,23.12.16a1.32,1.32,0,0,1,1.3.7q3.31,5.45,6.64,10.87c.11.17.21.35.31.53.18.34,0,.49-.38.53h-.61c-3,0-6.07.06-9.09-.11-5.41-.29-10.84,0-16.24-.27-4.83-.24-9.67,0-14.49-.25-4.3-.25-8.59-.09-12.89-.22-1.14,0-1.22-.18-.68-1.05q3.14-5,6.29-9.92a2.13,2.13,0,0,1,2.06-1c2.57,0,5.15,0,7.71,0Z"/><path class="cls-4" d="M86.56,144.26a90.73,90.73,0,0,1,6.17-7.64c.89-1,2-1.91,2.79-3,.17-.21.61-.22.62-.57a.41.41,0,0,0-.41-.06A73.18,73.18,0,0,0,84,137.49a21.56,21.56,0,0,0-4.78,3.84,4.16,4.16,0,0,1-1.15,1,2.66,2.66,0,0,1,0-1.53c.3-1.05.33-2.14.57-3.19a10.94,10.94,0,0,1,2.69-4.91,2.27,2.27,0,0,1,1.85-.71c12.85.31,25.7.21,38.55.3,1.19,0,1.25.19,1,1.18a18.45,18.45,0,0,0-.31,3.05,33.47,33.47,0,0,0,.12,4.25c0,.23.15.57-.08.67s-.55-.1-.79-.25a64.78,64.78,0,0,0-6.77-3.76,26.78,26.78,0,0,0-7.23-2.37,33.85,33.85,0,0,0-7-.47c-.31,0-.74-.15-.89.17s.27.52.53.7c3.15,2.19,6,4.7,9,7a24,24,0,0,1,2.15,2.13c.26.25.12.46-.29.43a2,2,0,0,0-1.65.49,1.07,1.07,0,0,1-.72.3,11.3,11.3,0,0,0-2.78.6c-.84.2-.92.5-.35,1s.51,1.21,1.11,1.67c.23.18,0,.35-.31.37-.45,0-.91,0-1.37,0H94.37c-.18,0-.41.06-.57-.15a26.32,26.32,0,0,1,3.44-1.39,30.76,30.76,0,0,0,5.3-2.55c.82-.5,1.91-.61,2.8-1.08.17-.09.51,0,.47-.33s-.33-.4-.62-.5a9.33,9.33,0,0,0-2.78-.33c-1.4,0-2.8.06-4.19,0-2,0-4.07.19-6.09.32a26.28,26.28,0,0,0-4.48,1C87.24,144.43,86.84,144.59,86.56,144.26Z"/><path class="cls-5" d="M58.59,164c-.71,1.15-1.45,2.29-2.12,3.49a18,18,0,0,0-2.29,6.14.47.47,0,0,1-.45.44,5.69,5.69,0,0,1-.83,0H30.6c-.9,0-1.05-.25-.63-.91l3.86-6.12c3.11-4.94,6.24-9.87,9.33-14.83a1.86,1.86,0,0,1,1.85-1c4.81.21,9.62.12,14.43.16a1.72,1.72,0,0,1,.81.12c.43.23,1.08.39,1.14.78s-.7.36-1,.63c0,0-.1,0-.13.06-1.72,1.43-4,2.06-6.12,3a19.4,19.4,0,0,0-6.63,5A36.38,36.38,0,0,0,41.72,170c-.11.24-.25.58,0,.75s.57,0,.84,0A25,25,0,0,0,49,168.45c1.72-.93,3.44-2,5.16-2.91,1.19-.65,2.41-1.24,3.62-1.87C58.26,163.51,58.68,163.39,58.59,164Z"/><path class="cls-5" d="M137.58,152.88h1.92a21.31,21.31,0,0,0,5.32-.89c.57-.15,1.22-.27,1.83-.39a1.12,1.12,0,0,1,1.29.57l12.93,21.37c.33.54.21.74-.53.74-1.43,0-2.86,0-4.28-.07-7.86-.2-15.73-.08-23.59-.12-1,0-1,0-1-.91,0-.71.05-1.44,0-2.16-.18-2-.4-4-.64-6-.05-.38-.4-.73-.15-1.23.36.33.69.6,1,.9a35.15,35.15,0,0,0,9.42,6.38,18.19,18.19,0,0,0,3.06.9c.34.09.52,0,.36-.37-1-2.36-2.25-4.58-3.31-6.93a2.53,2.53,0,0,0-.81-.91,48,48,0,0,1-3.43-3.41c-.69-.64-1.24-1.36-1.88-2-.1-.11-.31-.24-.15-.39s.36,0,.57,0a20.22,20.22,0,0,1,3,1.47c1.66.94,3.54,1.49,5.19,2.4a16.86,16.86,0,0,0,4.49,1.71c1.09.25,2.18.5,3.25.8.17.06.44.14.54-.08a.55.55,0,0,0-.17-.6,24.23,24.23,0,0,0-2.64-2.9,36.86,36.86,0,0,0-5.69-4.66,30.8,30.8,0,0,0-4.23-2.19A3.66,3.66,0,0,1,137.58,152.88Z"/><path class="cls-3" d="M96.41,89.12h11.68a2.82,2.82,0,0,1,1.72,1.16c1.68,2.76,3.39,5.5,5.09,8.25.41.66.32.81-.53.81-2.57,0-5.15.07-7.71-.08-5.59-.33-11.2,0-16.78-.26-3.77-.16-7.52-.15-11.29-.2-.84,0-.94-.15-.51-.82,1.54-2.41,3.1-4.81,4.65-7.2a5.58,5.58,0,0,0,.32-.52A.9.9,0,0,1,84.6,90H96.44Z"/><path class="cls-5" d="M104.87,163.7a76.36,76.36,0,0,0-4.12,7.33c-.37.78-.74,1.56-1.06,2.35a1.06,1.06,0,0,1-1.14.76H93.13a1.32,1.32,0,0,1-1.33-.88,37.64,37.64,0,0,0-6.69-9.92c-.12-.13-.32-.27-.2-.45s.32,0,.47,0a17,17,0,0,0,3.76.3c.85-.05.94-.2.57-.87s-.69-1.4-1-2.11a.28.28,0,0,1,0-.37,17.56,17.56,0,0,0,4.22.26,14,14,0,0,0,5.06-.61c.82-.29,1-.2.44-1-1.19-1.77-3.13-2.86-4.86-4.18a23.41,23.41,0,0,0-4.06-2.47,1,1,0,0,1-.26-.24c.14-.22.37-.13.57-.12l14,.17c.21,0,.53-.07.57.16s-.19.32-.36.46a17.28,17.28,0,0,1-2.29,1.49,8.55,8.55,0,0,0-1.23.83c-1.15,1-.7,1.82.6,2.24a10.49,10.49,0,0,0,3.47.58,8.77,8.77,0,0,1,2.33.26l.46.33c.93.61.78.77.27,1.36a28.53,28.53,0,0,0-2.63,3.64A1,1,0,0,0,104.87,163.7Z"/><path class="cls-4" d="M55.89,149.43c-.23,0-.4,0-.57,0l-9.09,0c-1,0-.94-.31-.15-1.32a63.54,63.54,0,0,1,5.72-8.81c1.18-2.19,2.76-4.34,4.07-6.55a1.5,1.5,0,0,1,1.45-.75c5.72.06,11.48.29,17.24.23.22,0,.48-.06.57.18s-.14.32-.25.44a31.78,31.78,0,0,0-4.52,6.62,2.14,2.14,0,0,1-.47.57,10.78,10.78,0,0,0-4.71-2.65c-.78-.22-.79.47-.92.83a16.93,16.93,0,0,0-.65,6.36c0,.49.11.8-.79.58-1.14-.31-2.4-.46-3.6-.66a29.83,29.83,0,0,0-5.9-.23c-1,0-1.26.46-.8,1.23a17.17,17.17,0,0,0,2.74,3.21A2.07,2.07,0,0,1,55.89,149.43Z"/><path class="cls-3" d="M96.11,87.42H86.38c-1.09,0-1.23-.17-.71-1,1.86-2.86,3.79-5.76,5.63-8.66,1.19-1.87,2.52-3.68,3.74-5.54a3.8,3.8,0,0,1,.57-.7,1.45,1.45,0,0,1,2.35.09A23.7,23.7,0,0,1,99.68,74c2.11,3.44,4.19,6.92,6.3,10.38.48.79,1,1.56,1.49,2.35.35.57.09,1-.57.91C103.2,87.24,99.52,87.61,96.11,87.42Z"/><path class="cls-4" d="M143.92,146.3a20.39,20.39,0,0,0-7.85-.7,9.41,9.41,0,0,1,1.38-1.51c.73-.65,1.37-1.36,2-2.06.3-.31.29-.48-.16-.6a9.64,9.64,0,0,0-4.68-.32,19.67,19.67,0,0,0-2.24.53c-.4.15-.49-.21-.57-.44a43.89,43.89,0,0,0-3.61-6.23,25.26,25.26,0,0,0-1.65-1.92c-.35-.39-.2-.61.33-.58a6.91,6.91,0,0,1,2,.08,4.65,4.65,0,0,0,1.66-.07h4a1.58,1.58,0,0,1,1.5.88c2.54,4.19,5.12,8.36,7.69,12.54A.45.45,0,0,1,143.92,146.3Z"/><path class="cls-5" d="M72,174.14h-7.6c-1.06.21-1.14.09-.71-.71a57.34,57.34,0,0,1,4.94-7.68,2.76,2.76,0,0,1,.31-.37.61.61,0,0,1,.39-.15c.18,0,.13.21.13.33a10.7,10.7,0,0,0,.33,3.23,17.65,17.65,0,0,0,1.09,2.62c.23.49.47.28.72.06A8.55,8.55,0,0,0,73.38,169c.58-1,1.06-2.11,1.61-3.15.08-.17.27-.42.41-.42s.35.25.47.45c1.6,2.53,3.21,5.06,4.95,7.52.18.25.5.51.33.79s-.65.19-1,.81H72Z"/><path class="cls-5" d="M118.39,174.14h-6.56c-.63.27-.86.15-.57-.41,1-1.95,1.92-3.9,2.9-5.86.35-.68.73-1.36,1.11-2,.14-.24.24-.58.65-.52s.44.36.57.64a24.54,24.54,0,0,0,1.49,3.36c.31.57.51.37.81,0a15.69,15.69,0,0,0,2.21-3,1.06,1.06,0,0,1,.39-.45c.23-.14.58-.21.58.18.1,1.15.88,2.14,1.33,3.19a33,33,0,0,0,2.25,4.63c.24.39.1.57-.47,1.15h-6.72Z"/><path class="cls-1" d="M95.83,183.74c-.74-2.16-1.34-4.23-2.21-6.23-.3-.7-.16-.82.73-.82H97.4c.86,0,1,.14.7.83-.37.86-.64,1.72-.93,2.59A22.25,22.25,0,0,1,95.83,183.74Z"/><path class="cls-2" d="M104.87,164a1,1,0,0,1,.24-.67,28.6,28.6,0,0,1,2.64-3.64c.5-.57.65-.75-.28-1.36L107,158c.69-.1,1,.61,1.72.57.18,0,.12.22,0,.32-1.43,1.62-2.52,3.43-3.84,5.1Z"/><path class="cls-3" d="M58.59,164.23c.09-.64-.33-.51-.76-.4a1.61,1.61,0,0,1,.42-.36c.32-.12.71-.54,1-.22s-.14.63-.45.86Z"/><path class="cls-3" d="M86.56,144.37c.28.34.68.18,1,.19-.29.45-.89.31-1.31.51-.15.07-.28-.07-.2-.24S86.25,144.42,86.56,144.37Z"/></svg>